<svg xmlns="http://www.w3.org/2000/svg" xmlns:xlink="http://www.w3.org/1999/xlink" xmlns:sketch="http://www.bohemiancoding.com/sketch/ns" viewBox="0 0 58 72.5" version="1.1" x="0px" y="0px"><title>167 - Bookshelf (Solid)</title><desc>Created with Sketch.</desc><g stroke="none" stroke-width="1" fill="none" fill-rule="evenodd" sketch:type="MSPage"><g sketch:type="MSLayerGroup" fill="#000000"><path d="M56,42 L56,32 L52,32 L52,30 L46,30 L46,32 L44,32 L44,28 L41.073,28 C41.097,27.919 41.128,27.842 41.145,27.758 C41.337,26.789 41.021,25.812 40.299,25.146 C39.495,24.401 38.981,23.598 38.77,22.757 L38.581,22 L37,22 L37,21.414 L39.707,18.707 C40.098,18.316 40.098,17.684 39.707,17.293 C39.316,16.902 38.684,16.902 38.293,17.293 L37,18.586 L37,15.858 C38.72,15.411 40,13.859 40,12 L40,10 L37,10 L37,7 L32,7 L32,12 C32,13.859 33.28,15.411 35,15.858 L35,22 L33.419,22 L33.23,22.757 C33.02,23.598 32.505,24.401 31.701,25.146 C30.979,25.812 30.663,26.789 30.855,27.757 C30.872,27.841 30.903,27.919 30.927,28 L30,28 L30,14 L25,14 C26.654,14 28,12.654 28,11 C28,9.346 26.654,8 25,8 L24,8 L24,7 L17,7 L17,14 L16,14 L16,0 L0,0 L0,58 L58,58 L58,42 L56,42 L56,42 Z M52,34 L54,34 L54,42 L52,42 L52,34 Z M48,32 L50,32 L50,42 L48,42 L48,32 Z M44,34 L46,34 L46,42 L44,42 L44,34 Z M38,12 C38,12.739 37.597,13.386 37,13.731 L37,12 L38,12 L38,12 Z M34,12 L34,9 L35,9 L35,13.731 C34.403,13.386 34,12.739 34,12 L34,12 Z M33.679,30 L42,30 L42,42 L30,42 L30,30 L33.679,30 L33.679,30 Z M25,10 C25.551,10 26,10.448 26,11 C26,11.552 25.551,12 25,12 L24,12 L24,10 L25,10 L25,10 Z M19,9 L22,9 L22,14 L19,14 L19,9 Z M17,16 L28,16 L28,28 L16,28 L16,16 L17,16 L17,16 Z M2,16 L14,16 L14,28 L11,28 L11,19 L2,19 L2,16 L2,16 Z M5,21 L6,21 L6,28 L5,28 L5,21 Z M8,21 L9,21 L9,28 L8,28 L8,21 Z M2,21 L3,21 L3,28 L2,28 L2,21 Z M2,30 L14,30 L14,42 L2,42 L2,30 Z M19,55 L25,55 L25,56 L19,56 L19,55 Z M19,52 L25,52 L25,53 L19,53 L19,52 Z M19,49 L25,49 L25,50 L19,50 L19,49 Z M28,56 L27,56 L27,47 L17,47 L17,56 L16,56 L16,44 L28,44 L28,56 L28,56 Z M30,44 L42,44 L42,56 L30,56 L30,44 Z" sketch:type="MSShapeGroup"/><path d="M20.463,6.078 C20.588,6.13 20.718,6.154 20.845,6.154 C21.238,6.154 21.61,5.922 21.77,5.537 C21.975,5.042 21.753,4.477 21.274,4.251 C22.557,3.701 22.75,2.883 22.75,2.44 C22.75,1.993 22.552,1.161 21.229,0.612 C20.717,0.4 20.133,0.644 19.922,1.153 C19.717,1.648 19.939,2.214 20.419,2.44 C19.134,2.989 18.941,3.807 18.941,4.25 C18.941,4.697 19.139,5.529 20.463,6.078" sketch:type="MSShapeGroup"/></g></g></svg>
