<svg xmlns="http://www.w3.org/2000/svg" xmlns:xlink="http://www.w3.org/1999/xlink" version="1.1" x="0px" y="0px" viewBox="1899.615 -81.891 100 78.774" enable-background="new 1899.615 -81.891 100 78.774" xml:space="preserve"><path d="M1980.061-63.957c-0.481-0.053-1.006-0.535-1.055-1.101c-0.01-0.132-0.018-0.258-0.045-0.382  c-0.229-2.22-2.09-3.961-4.367-3.961c-2.537,0-4.68,2.021-4.68,4.412c0,2.6,1.924,4.415,4.68,4.415c1.047,0,1.998-0.382,2.754-0.992  c0.718,0.536,1.599,0.88,2.572,0.92c1.348,0.049,2.582-0.396,3.494-1.271c0.848-0.812,1.137-1.983,1.133-3.07  c0.127-2.649-1.011-5.12-2.682-6.938c-1.841-2.001-4.335-3.197-7.07-3.197c-0.002,0-0.002,0-0.002,0  c-2.889,0-5.795,1.161-7.619,3.627c-1.121,1.514-2.465,3.462-2.465,6.508c0,2.768,0.545,5.228,2.559,7.266  c1.578,1.598,4.591,2.87,7.326,2.87c1.779,0,3.205-0.355,4.768-1.189c0.836-0.446,1.234-1.536,0.704-2.321  c-0.472-0.699-1.563-0.733-2.455-0.513c-0.972,0.241-1.616,0.751-3.013,0.751c-1.766,0-4.053-0.888-4.926-1.85  c-1.291-1.424-1.781-3.1-1.781-5.014c0-1.617,0.494-2.879,1.767-4.493c0.819-1.045,3.187-2.426,5.19-2.426  c1.771,0,3.485,0.832,4.724,2.25c1.138,1.308,1.81,2.884,1.726,4.669C1981.24-64.453,1980.807-63.872,1980.061-63.957z   M1974.633-63.622c-1.033,0.107-1.524-0.723-1.488-1.365c0.039-0.751,0.883-1.216,1.488-1.216c0.541,0,1.084,0.675,1.084,1.216  S1975.498-63.711,1974.633-63.622z"></path><path d="M1942.623-33.881c-0.456,2.171-1.039,4.205-1.729,6.104l7.189-1.863c1.982-0.515,3.45-2.185,3.707-4.215l0.42-3.342  c-0.74,0.656-1.625,1.157-2.613,1.427L1942.623-33.881z"></path><path d="M1949.609-44.378l-6.477,7.698c-0.031,0.211-0.074,0.409-0.108,0.618l6.05-1.641c1.713-0.465,2.998-1.883,3.29-3.633  l0.172-1.027l0.591-3.53c-0.677,0.317-1.373,0.633-2.109,0.941C1950.559-44.758,1950.09-44.565,1949.609-44.378z"></path><path d="M1945.075-81.891v18.188l4-1.586v-12.602h46.54v25.809H1961.1c-1.43,1.398-3.313,2.732-5.633,4h44.148v-33.809H1945.075z"></path><path d="M1960.989-64.103c-0.002-0.004-0.006-0.007-0.009-0.011c-0.198-0.215-0.415-0.407-0.643-0.585  c-0.024-0.019-0.049-0.04-0.072-0.059c-0.221-0.167-0.455-0.312-0.696-0.442c-0.099-0.052-0.2-0.094-0.302-0.14  c-0.129-0.059-0.258-0.113-0.389-0.163c-0.154-0.056-0.31-0.105-0.467-0.147c-0.057-0.017-0.113-0.025-0.169-0.039  c-0.226-0.055-0.455-0.086-0.687-0.112c-0.129-0.014-0.262-0.021-0.394-0.024c-0.067-0.003-0.137-0.003-0.206-0.003  c-0.652,0.007-1.312,0.126-1.947,0.378l-5.33,2.115l-4,1.587l-8.979,3.562c-0.588,0.232-1.132,0.567-1.604,0.987l-9.685,8.591  l-1.205-1.358l9.685-8.59c0.635-0.562,1.354-1.007,2.142-1.319l7.243-2.955v-10.895h-5.583c-0.693,0-1.379,0.132-2.022,0.39  l-14.527,7.263c-1.23,0.493-2.239,1.417-2.838,2.6l-18.689,26.419v33.938c0,0,14.419-2.729,17.111-3.839  c5.14-2.117,16.498-5.529,22.09-20.899c0.049-0.14,0.098-0.276,0.148-0.424c0.586-1.725,1.195-3.93,1.685-6.108  c0.047-0.208,0.089-0.413,0.134-0.62c0.066-0.341,0.139-0.676,0.2-1.025c0.03-0.165,0.058-0.333,0.086-0.5  c0.108-0.635,0.212-1.276,0.304-1.94l0.815-0.969l0.118-0.142l6.177-7.341c0.122-0.047,0.245-0.098,0.366-0.146  c0.799-0.312,1.607-0.652,2.416-1.013c0.656-0.292,1.312-0.593,1.957-0.915c0.146-0.072,0.289-0.145,0.434-0.219  c0.48-0.246,0.953-0.5,1.416-0.763c1.143-0.648,2.215-1.354,3.186-2.104c1.924-1.488,3.418-3.169,4.058-5.047  c0.725-2.13,0.461-4.338-0.741-6.217C1961.399-63.619,1961.202-63.871,1960.989-64.103z"></path></svg>
