<?xml version="1.0" encoding="iso-8859-1"?>
<!-- Generator: Adobe Illustrator 16.0.0, SVG Export Plug-In . SVG Version: 6.00 Build 0)  -->
<!DOCTYPE svg PUBLIC "-//W3C//DTD SVG 1.1//EN" "http://www.w3.org/Graphics/SVG/1.1/DTD/svg11.dtd">
<svg version="1.1" id="Capa_1" xmlns="http://www.w3.org/2000/svg" xmlns:xlink="http://www.w3.org/1999/xlink" x="0px" y="0px"
	 width="792px" height="792px" viewBox="0 0 792 792" style="enable-background:new 0 0 792 792;" xml:space="preserve">
<g>
	<g>
		<path d="M532.888,636.451l-280.837-2.804c-16.199,0-29.516,11.964-29.69,26.691c-0.144,14.867,13.074,27.096,29.469,27.266
			l280.544,2.773c0.026,0,0.297,0,0.327,0c16.217,0,29.503-11.964,29.625-26.635c0.083-6.739-2.582-13.213-7.501-18.232
			C549.256,639.825,541.255,636.525,532.888,636.451z M532.7,672.964v8.707l-0.157-8.707l-280.54-2.773
			c-6.678-0.069-12.276-4.501-12.229-9.664c0.061-5.216,5.568-9.465,12.412-9.465l280.544,2.804c3.783,0.03,7.301,1.428,9.656,3.831
			c1.171,1.192,2.56,3.174,2.524,5.873C544.868,668.662,539.278,672.964,532.7,672.964z"/>
		<path d="M531.416,701.152l-139.093-0.239l-140.646-2.547c-14.362,0-23.417,10.422-23.63,27.244
			c-0.061,8.532,2.464,15.075,15.659,23.347c11.554,7.01,89.516,41.759,146.785,43.017c0.261,0.018,0.497,0.026,0.692,0.026h0.422
			c0.004,0,0.009,0,0.013,0c57.753-0.092,136.036-33.356,147.651-40.174c13.261-7.866,15.938-14.379,16.081-23.043
			C555.49,712.415,545.904,701.305,531.416,701.152z M391.431,780.037l0.17-0.797l0.004,4.053L391.431,780.037z M530.423,736.829
			c-9.525,5.585-84.761,37.67-138.831,37.757v0.018c-0.218-0.018-0.431-0.03-0.644-0.039c-53.635-1.145-128.692-34.723-138.1-40.426
			c-7.41-4.646-7.401-6.064-7.383-8.359c0.126-9.999,4.397-9.999,6.208-9.999l139.811,2.547l139.824,0.239
			c1.663,0.018,6.718,0.074,6.631,10.004C537.902,730.96,537.876,732.405,530.423,736.829z"/>
		<path d="M322.315,409.611c-3.9-19.321-6.334-31.85-7.122-35.899l-0.322-1.641c-0.069-0.292-0.135-0.583-0.2-0.866
			c14.619-11.702,23.3-29.377,23.5-48.419c0.17-16.77-6.195-32.607-17.919-44.597c-11.741-12.007-27.448-18.703-44.213-18.864
			l-0.645-0.004c-34.296,0-62.48,27.906-62.829,62.202c-0.322,31.167,22.167,57.339,52.346,62.416
			c3.448,17.605,31.858,162.819,32.511,166.28c2.155,9.821,4.197,19.099,13.496,20.587c0.466,0.079,0.94,0.113,1.41,0.113
			c2.573,0,28.276-5.376,28.48-5.429c0.166-0.048,0.331-0.096,0.496-0.147c10.322-3.448,8.106-15.956,6.5-25.041
			C347.604,539.13,328.25,440.011,322.315,409.611z M315.946,552.73c-0.374-1.319-0.849-3.191-1.437-5.855
			c-0.148-0.854-32.402-165.857-32.82-167.851c-0.261-1.542-0.44-2.656-0.566-3.888c-0.44-4.258-3.901-7.562-8.171-7.801
			c-24.349-1.363-43.226-21.411-42.973-45.637c0.252-24.793,20.623-44.967,45.415-44.967l0.47,0.004
			c12.116,0.113,23.457,4.954,31.937,13.626c8.48,8.668,13.082,20.117,12.96,32.237c-0.161,15.32-7.893,29.408-20.688,37.688
			c-3.173,2.059-4.663,5.929-3.674,9.582c0.44,1.611,0.915,3.553,1.445,5.851l0.261,1.315c0.788,4.062,3.23,16.626,7.131,35.968
			c8.625,44.166,25.037,128.235,25.416,130.29c0.501,2.834,0.784,4.876,0.936,6.33C327.004,550.55,320.387,551.877,315.946,552.73z"
			/>
		<path d="M516.641,261.711l-0.649-0.004c-34.313,0-62.484,27.897-62.803,62.172c-0.2,19.024,8.154,36.882,22.616,48.911
			c-0.069,0.274-0.131,0.553-0.195,0.832c-0.393,1.55-3.975,18.015-8.163,37.466c-6.534,30.226-27.866,128.94-28.084,130.076
			c-1.789,9.042-4.24,21.428,5.725,25.142c0.37,0.135,1.049,0.317,1.437,0.404c25.834,5.808,26.644,5.808,27.871,5.808
			c0.413,0,0.831-0.03,1.245-0.091c9.347-1.315,11.615-11.01,13.77-20.257c0.409-1.633,31.858-146.911,35.873-165.657
			c30.265-4.432,53.286-30.147,53.604-61.357c0.17-16.761-6.217-32.599-17.984-44.597
			C549.139,268.564,533.41,261.868,516.641,261.711z M517.633,369.755c-4.175,0.144-7.658,3.234-8.302,7.362
			c-0.205,1.323-0.414,2.49-0.719,4.096c-0.592,2.908-35.367,163.538-36.125,166.868c-0.661,2.839-1.188,4.806-1.598,6.178
			c-3.339-0.71-8.484-1.837-15.52-3.404c0.191-1.459,0.518-3.483,1.07-6.273c0.427-2.068,18.52-85.811,28.028-129.812
			c5.158-23.961,7.774-35.863,8.066-37.056c0.544-2.342,1.023-4.179,1.511-5.725c1.153-3.674-0.244-7.667-3.431-9.822
			c-12.69-8.581-20.174-22.82-20.013-38.11c0.23-24.775,20.588-44.932,45.389-44.932l0.479,0.004
			c12.124,0.113,23.491,4.958,32.011,13.635c8.507,8.676,13.125,20.122,12.999,32.224
			C561.232,349.242,541.973,368.906,517.633,369.755z"/>
		<path d="M607.993,88.993C552.482,32.394,478.243,0.797,398.949,0.018L395.889,0C233.854,0,100.734,131.831,99.136,293.871
			c-0.984,97.504,45.772,188.822,125.288,245.229l-0.022,1.689c-0.043,2.124-1.119,52.206-0.749,60.752
			c0.453,10.392,2.251,20.636,18.394,21.854c6.835,0.457,63.473,0.875,69.877,0.923c8.807,0.092,215.944,2.308,231.163,2.308
			c0.972,0,1.52-0.035,1.759-0.039c10.823-0.179,17.196-7.371,17.479-19.852l0.636-64.531
			c80.469-54.771,128.936-145.048,129.902-242.448C693.655,220.454,663.512,145.605,607.993,88.993z M549.518,530.249
			c-2.425,1.594-3.893,4.288-3.918,7.188l-0.68,69.016c-0.03,1.319-0.17,2.186-0.296,2.721c-0.004,0-0.004,0-0.004,0
			c-0.018,0-0.035,0-0.053,0c-0.396,0.009-0.753,0.021-1.022,0.035l-0.453,0.004c-15.128,0-228.821-2.281-231.007-2.308
			c-25.067-0.178-64.091-0.562-68.797-0.875c-0.81-0.064-1.397-0.135-1.815-0.209c-0.148-0.879-0.3-2.407-0.418-5.036
			c-0.283-6.622,0.453-45.276,0.766-59.694l0.083-6.378c0.039-2.908-1.38-5.646-3.779-7.292
			C161.06,474.538,115.614,387.3,116.55,294.044c1.502-152.531,126.811-276.631,279.338-276.631l2.887,0.018
			c74.644,0.731,144.529,30.479,196.784,83.756c52.263,53.286,80.634,123.747,79.895,198.395
			C674.526,392.729,627.448,478.957,549.518,530.249z"/>
		<path d="M250.75,106.433c3.596-3.187,3.931-8.689,0.749-12.29c-3.182-3.596-8.685-3.936-12.281-0.753
			c-1.397,1.232-139.075,125.244-84.771,276.095c1.28,3.548,4.624,5.76,8.193,5.76c0.979,0,1.977-0.17,2.952-0.518
			c4.523-1.628,6.87-6.618,5.241-11.145C120.56,223.954,249.443,107.591,250.75,106.433z"/>
		<path d="M264.149,524.473c-4.806,0-8.707,3.9-8.707,8.706v58.815c0,4.807,3.901,8.707,8.707,8.707s8.707-3.9,8.707-8.707v-58.815
			C272.856,528.368,268.956,524.473,264.149,524.473z"/>
		<path d="M264.793,288.084c-1.863,0.875-18.284,9.038-21.806,25.668c-2.277,10.779,1.454,21.876,11.092,33
			c1.724,1.989,4.145,3.003,6.587,3.003c2.02,0,4.053-0.701,5.699-2.124c3.635-3.152,4.027-8.65,0.879-12.281
			c-5.855-6.756-8.285-12.786-7.231-17.923c1.437-6.987,9.312-12.185,12.233-13.604c4.328-2.059,6.178-7.227,4.136-11.567
			C274.336,287.902,269.147,286.03,264.793,288.084z"/>
		<path d="M503.976,292.438c-1.863,0.875-18.284,9.038-21.806,25.668c-2.277,10.779,1.454,21.876,11.092,32.999
			c1.725,1.99,4.145,3.004,6.587,3.004c2.021,0,4.054-0.701,5.699-2.125c3.635-3.152,4.026-8.65,0.879-12.281
			c-5.855-6.757-8.284-12.786-7.23-17.923c1.437-6.987,9.312-12.189,12.237-13.604c4.323-2.059,6.173-7.227,4.131-11.567
			C513.51,292.255,508.334,290.383,503.976,292.438z"/>
	</g>
</g>
<g>
</g>
<g>
</g>
<g>
</g>
<g>
</g>
<g>
</g>
<g>
</g>
<g>
</g>
<g>
</g>
<g>
</g>
<g>
</g>
<g>
</g>
<g>
</g>
<g>
</g>
<g>
</g>
<g>
</g>
</svg>
