<svg xmlns="http://www.w3.org/2000/svg" xmlns:xlink="http://www.w3.org/1999/xlink" version="1.1" x="0px" y="0px" viewBox="0 0 100 125" enable-background="new 0 0 100 100" xml:space="preserve"><circle cx="53.3" cy="55.8" r="2.4"/><path d="M81.5,74.1h-42c-0.6,0-1-0.4-1-1V46.9c0-0.6,0.4-1,1-1h42c0.6,0,1,0.4,1,1v26.2C82.5,73.7,82.1,74.1,81.5,74.1z M40.5,72.1  h40V47.9h-40V72.1z"/><path d="M46.1,74.1c-0.3,0-0.5-0.1-0.7-0.3c-0.4-0.4-0.4-1,0-1.4l7.6-7.6c0.2-0.2,0.4-0.3,0.7-0.3l0,0c0.3,0,0.5,0.1,0.7,0.3  l7.4,7.4c0.4,0.4,0.4,1,0,1.4s-1,0.4-1.4,0l-6.7-6.7l-6.9,6.9C46.6,74,46.4,74.1,46.1,74.1z"/><path d="M75,74.1c-0.3,0-0.5-0.1-0.7-0.3L62.8,62.2l-6.2,6.2c-0.4,0.4-1,0.4-1.4,0s-0.4-1,0-1.4l6.9-6.9c0.4-0.4,1-0.4,1.4,0  l12.3,12.3c0.4,0.4,0.4,1,0,1.4C75.5,74,75.3,74.1,75,74.1z"/><path d="M70,33.7H39.5c-0.6,0-1-0.4-1-1s0.4-1,1-1H70c0.6,0,1,0.4,1,1S70.5,33.7,70,33.7z"/><path d="M62.1,41H39.5c-0.6,0-1-0.4-1-1s0.4-1,1-1h22.6c0.6,0,1,0.4,1,1S62.6,41,62.1,41z"/><path d="M77.3,37.4H39.5c-0.6,0-1-0.4-1-1s0.4-1,1-1h37.8c0.6,0,1,0.4,1,1S77.9,37.4,77.3,37.4z"/><path d="M90,82.5H10c-1.7,0-3-1.3-3-3v-59c0-1.7,1.3-3,3-3h80c1.7,0,3,1.3,3,3v59C93,81.2,91.7,82.5,90,82.5z M10,19.5  c-0.6,0-1,0.4-1,1v59c0,0.6,0.4,1,1,1h80c0.6,0,1-0.4,1-1v-59c0-0.6-0.4-1-1-1H10z"/><path d="M92,27.4H8.5c-0.6,0-1-0.4-1-1s0.4-1,1-1H92c0.6,0,1,0.4,1,1S92.6,27.4,92,27.4z"/><circle cx="12.7" cy="22.3" r="1.3"/><circle cx="17.4" cy="22.3" r="1.3"/><circle cx="22.1" cy="22.3" r="1.3"/><path d="M21.6,47.3h-9.4c-0.6,0-1-0.4-1-1s0.4-1,1-1h9.4c0.6,0,1,0.4,1,1S22.2,47.3,21.6,47.3z"/><path d="M25.3,52H12.2c-0.6,0-1-0.4-1-1c0-0.6,0.4-1,1-1h13.1c0.6,0,1,0.4,1,1C26.3,51.6,25.9,52,25.3,52z"/><path d="M22.7,56.8H12.2c-0.6,0-1-0.4-1-1s0.4-1,1-1h10.5c0.6,0,1,0.4,1,1S23.3,56.8,22.7,56.8z"/><path d="M20.1,61.5h-7.9c-0.6,0-1-0.4-1-1s0.4-1,1-1h7.9c0.6,0,1,0.4,1,1S20.6,61.5,20.1,61.5z"/><path d="M22.7,66.2H12.2c-0.6,0-1-0.4-1-1s0.4-1,1-1h10.5c0.6,0,1,0.4,1,1S23.3,66.2,22.7,66.2z"/><path d="M15.9,40.6c-2.6,0-4.7-2.1-4.7-4.7c0-2.6,2.1-4.7,4.7-4.7s4.7,2.1,4.7,4.7C20.5,38.5,18.5,40.6,15.9,40.6z M15.9,33.3  c-1.5,0-2.7,1.2-2.7,2.7s1.2,2.7,2.7,2.7s2.7-1.2,2.7-2.7S17.4,33.3,15.9,33.3z"/><path d="M28.5,82c-0.6,0-1-0.4-1-1V26.4c0-0.6,0.4-1,1-1s1,0.4,1,1V81C29.5,81.5,29,82,28.5,82z"/></svg>
